<?xml version="1.0" encoding="UTF-8"?>
<svg version="1.1" xmlns="http://www.w3.org/2000/svg" width="190" height="190">
<path d="M0 0 C-0.39832031 0.68964844 -0.79664063 1.37929687 -1.20703125 2.08984375 C-7.52749817 13.30059895 -9.51072106 22.19438911 -10 35 C-14.41661151 35.05804281 -18.83312496 35.09361104 -23.25 35.125 C-24.50425781 35.14175781 -25.75851563 35.15851563 -27.05078125 35.17578125 C-28.25605469 35.18222656 -29.46132813 35.18867188 -30.703125 35.1953125 C-32.36843262 35.21102295 -32.36843262 35.21102295 -34.06738281 35.22705078 C-36.93950942 35.00468334 -38.57223735 34.49281575 -41 33 C-33.99260699 17.53206797 -24.55022649 7.86513703 -9 1 C-5.8035914 -0.06546953 -3.34252724 -0.07427838 0 0 Z " fill="#FF571F" transform="translate(78,94)"/>
<path d="M0 0 C15.77814315 -0.58198069 29.6206093 1.54400223 42.33984375 11.90625 C45.10663218 14.57685151 46.77048519 16.31145556 48 20 C47.20078125 19.96519531 46.4015625 19.93039063 45.578125 19.89453125 C34.5523254 19.62276858 25.20214252 21.04218697 15.83984375 27.109375 C14 28 14 28 11 27 C8.58721707 23.42324727 6.72504927 19.51992621 4.75 15.6875 C4.1828125 14.62853516 3.615625 13.56957031 3.03125 12.47851562 C2.50015625 11.45822266 1.9690625 10.43792969 1.421875 9.38671875 C0.93299805 8.45045654 0.44412109 7.51419434 -0.05957031 6.54956055 C-1.07463611 3.79765709 -1.05220515 2.68690918 0 0 Z " fill="#FF571F" transform="translate(40,60)"/>
<path d="M0 0 C6.33545408 2.55329723 8.65188735 8.94813763 11.2734375 14.8828125 C13.67876398 21.55290223 14.3737176 27.84604365 14.4375 34.875 C14.44765137 35.67156006 14.45780273 36.46812012 14.46826172 37.28881836 C14.38973474 42.56284538 13.36963833 46.28586539 11 51 C10.34 51 9.68 51 9 51 C8.72027344 50.3709375 8.44054687 49.741875 8.15234375 49.09375 C2.74562497 37.55014464 -3.73630859 31.91852422 -15 26 C-11.51402555 16.6357157 -5.64599445 8.18979415 0 0 Z " fill="#FF571F" transform="translate(94,30)"/>
<path d="M0 0 C0.99 0.33 1.98 0.66 3 1 C3.91281724 2.89325058 4.82458896 4.78701397 5.73046875 6.68359375 C10.62449451 15.61330844 18.15934597 20.41759433 27 25 C22.64256169 34.20508843 17.88287512 42.65701347 12 51 C5.72219303 48.48346531 3.55731522 42.16717789 0.7265625 36.41015625 C-3.52211101 25.90900223 -4.37798056 10.61222487 0 0 Z " fill="#FF571F" transform="translate(84,110)"/>
<path d="M0 0 C1.41912551 2.49863124 2.8353384 4.99884281 4.25 7.5 C4.64574219 8.19609375 5.04148438 8.8921875 5.44921875 9.609375 C7.45381813 13.15850177 9.41845647 16.72605505 11.296875 20.34375 C11.62526367 20.97474609 11.95365234 21.60574219 12.29199219 22.25585938 C13 24 13 24 13 27 C-4.31686278 27.61601488 -18.3923364 26.28170565 -32 14.375 C-33.77566089 12.26640269 -34.83570501 10.46373137 -36 8 C-35.32195312 8.02320312 -34.64390625 8.04640625 -33.9453125 8.0703125 C-23.01735116 8.28221203 -15.20807428 6.49670801 -5.56640625 1.2421875 C-3 0 -3 0 0 0 Z " fill="#FF571F" transform="translate(138,103)"/>
<path d="M0 0 C10.23 0 20.46 0 31 0 C28.48318561 12.58407193 19.9535514 21.8561476 9.5625 28.8125 C3.58068465 32.45143767 -1.94377971 35 -9 35 C-7.7019584 31.61066915 -6.21336348 28.44688552 -4.5 25.25 C-0.15921463 16.58123394 0 10.02814014 0 0 Z " fill="#FF571F" transform="translate(121,62)"/>
</svg>
